<svg xmlns="http://www.w3.org/2000/svg" viewBox="0 0 1724.85 551.51"><defs><style>.cls-1{fill:#80ed99;}.cls-2{fill:#22577a;}.cls-3{fill:#57cc99;}.cls-4{fill:#38a3a5;}</style></defs><g id="Layer_2" data-name="Layer 2"><g id="Layer_1-2" data-name="Layer 1"><path class="cls-1" d="M151.71,467.32q1.47-2.11,2.92-4.29c.29-.45.59-.9.89-1.35L30.86,396.28l-3.18-1.43V150.43l-.78-.59L0,129.67V408.58L144.57,477C147,473.88,149.39,470.64,151.71,467.32Z"/><path class="cls-2" d="M377.47,500.72a90.62,90.62,0,0,1-33.18-6.07,81,81,0,0,1-31.85-22.58l-.11,0-.09-.28A101.63,101.63,0,0,1,302,457.71c-.87-1.4-1.7-2.85-2.51-4.32-1.94-3.51-3.77-7.2-5.47-11.1-.67-1.51-1.32-3.05-1.93-4.62a207,207,0,0,1-11.17-40.28c-3.29-18.25-6.66-48.46-4.07-88.74C280.26,255.34,299.16,204,333,156a382,382,0,0,1,30.14-37.36L245.78,211,96.55,106.74a368.32,368.32,0,0,1,64.64,87.09h0l.05,0,0,0a327,327,0,0,1,23,54.78,294.45,294.45,0,0,1,10.12,42.92c.36,2.27.7,4.55,1,6.82a269.27,269.27,0,0,1,2.31,41.64,4.7,4.7,0,0,1,0,.53c0,1.11-.08,2.22-.11,3.33l-.12,2.54c-.05,1.1-.11,2.19-.18,3.29a242,242,0,0,1-9.08,52.81c-.49,1.67-1,3.33-1.52,5q-3.14,10-7.15,19.63a225.79,225.79,0,0,1-12.24,24.88c-.83,1.46-1.67,2.89-2.52,4.33a242.5,242.5,0,0,1-15.56,22.78q-1.69,2.2-3.48,4.4a254.62,254.62,0,0,1-19.12,21.08c-.91.9-1.85,1.8-2.79,2.71q-4,3.88-8.33,7.66a298.35,298.35,0,0,1-51.76,36.48,358.6,358.6,0,0,0,90.83-20.73,359.41,359.41,0,0,0,85.2-45.39l1.32,1.85s0,0,0,0c42,49.23,98,66.53,153.82,47.47,49.17-16.8,72.37-53.38,81.62-73C460,474.2,420,500.71,377.47,500.72Z"/><path class="cls-1" d="M476.07,129.67V408.58l-149,70.54a80.39,80.39,0,0,1-8.3-7.55l-1.17-1.26c-.43-.45-.85-.92-1.26-1.4l-1-1.17c-.43-.48-.85-1-1.26-1.49-1.17-1.43-2.31-2.93-3.41-4.47l135.08-70.34.05,0,3.37-1.56v-240l6.15-4.62,5-3.72Z"/><path class="cls-3" d="M444.19,107.76V386.67l-.7.32-91.88,47.85-43.77,22.79c-.44-.66-.86-1.33-1.27-2s-.74-1.17-1.08-1.77c-.5-.84-1-1.69-1.46-2.54-1.13-2.05-2.25-4.16-3.31-6.35-.72-1.49-1.42-3-2.11-4.59-.11-.25-.22-.51-.32-.76l7.38-4.67s0,0,0,.06l108.09-73.66V130.56Z"/><path class="cls-4" d="M408.81,234.51V358.7l-105.2,71.69h0L296.37,435a186.73,186.73,0,0,1-7.22-22.89c-.42-1.69-.82-3.4-1.22-5.13-.16-.78-.35-1.57-.51-2.35l-.42-2,89.6-54.3V283.11l-95.67,51.24c0-7.94.3-16.4.89-25.39a277.44,277.44,0,0,1,23.95-95.78v77.46l98.06-53.44Z"/><path class="cls-4" d="M99.46,273.5v71.78l83.7,56.58c-.28.93-.55,1.87-.85,2.8q-3.24,10.44-7.47,20.62-2.51,6-5.27,11.63l-101-68.26v-281c34.86,29.69,63,63.67,83.56,99.75L99.41,150v79.94L190,294.66l.36,2.42c.18,1.32.35,2.63.51,3.95,0,.2.05.41.08.61l.33,2.93c.1,1,.21,2,.32,3s.18,1.82.25,2.74.15,1.81.23,2.71c0,.6.09,1.19.14,1.78l0,.47c0,.16,0,.31,0,.47s0,.12,0,.18,0,.11,0,.16,0,.4,0,.59,0,.26,0,.39q.25,4,.38,7.92c0,1.39.07,2.76.11,4.15q0,4.11,0,8.21Z"/><path class="cls-3" d="M167.32,441.41c-1.51,2.92-3.07,5.81-4.68,8.62l-.17.31c-.78,1.36-1.56,2.69-2.36,4a1.73,1.73,0,0,0-.16.3c-.57.95-1.15,1.89-1.74,2.81l-52.74-27.66-72.36-38-.45-.23V112.74L63.55,135.9v4l1,.75h0l-1-.75V371.3Z"/><path class="cls-4" d="M408.81,82.61v71.74l-5,2.5-94.14,47.92c25.21-52,62.29-90.92,90.4-115.27,1.26-1.1,2.5-2.17,3.74-3.2l.27-.22,3-2.12,1.66-1.33Z"/><path class="cls-2" d="M169.14,89.34a77.86,77.86,0,0,1,1.4-13.48c1.56-8.06,4.83-15.9,8-23.47.92-2.23,1.86-4.5,2.78-6.78l-3-1.83-1.81-1.1-2.95-1.81c-1.16,2.74-2.39,5.46-3.61,8.13-4.18,9.17-8.5,18.64-9.75,28.82-.59,4.87.51,9.57,2.06,14.14h0l-4.39,1.68,7.86,20.58,14.85-5.67L172.74,88Zm7,17.23-8.45,3.23L162.3,95.62l1.12-.43c.25.67.51,1.33.76,2a84.66,84.66,0,0,1,3,9l3.34-.72A82.19,82.19,0,0,1,169.18,93l1.58-.61"/><path class="cls-2" d="M291,92.75l-.48-.77-.91,0c-13.4-.39-27.07,3.61-40.71,11.86,3.92-5,10.33-9,19.14-12.12.68-.24,1.37-.48,2.08-.7l1.13-.35,1.24-.37,2.12-.58.3-.08c.84-.22,1.69-.43,2.56-.63l.68-.16,2.08-.46.72-.15,2.58-.51.21,0c1.11-.2,2.25-.4,3.41-.59l1.44-.23V67.47l48-15.2L251.42,0,156.16,30.18l17.43,10.69,2.95,1.81,1.81,1.1,3,1.83,21.16,13,.81-.35A78.57,78.57,0,0,1,211,55.41c13.12-4.1,32.93-5.45,47.29-2.5l-3.07.08h0l-2.21.07-3.83.17-2.86.18h-.12l-2.84.22h-.24l-2.72.26-.33,0c-.87.08-1.75.18-2.62.28l-.41.05-2.52.32a4,4,0,0,1-.48.07l-2.43.37-.54.09c-.77.12-1.55.26-2.33.41l-.6.11-2.23.44-.66.15-2.13.48-.72.18-2,.52-.8.22-1.86.55c-.3.08-.6.18-.9.27l-1.68.56-1,.36-1.5.55c-.37.15-.75.29-1.12.45l-1,.4-1,.43-1,.45v18.4a55.37,55.37,0,0,0,35.63,97.71q2.58,0,5.19-.24a55.42,55.42,0,0,0,50-60.28A54.68,54.68,0,0,0,291,92.75Z"/><path class="cls-3" d="M638.61,347.37a24.71,24.71,0,0,0,5.14,1.05c1.71.16,3.42.24,5.14.24a43.05,43.05,0,0,0,12.36-1.77,44.71,44.71,0,0,0,11.15-5.06,41.34,41.34,0,0,0,9.31-8,42,42,0,0,0,6.66-10.52l32.11,32.27a86.37,86.37,0,0,1-14.05,15.57,88.53,88.53,0,0,1-17.17,11.72,86,86,0,0,1-19.43,7.3,87.85,87.85,0,0,1-20.94,2.49,86.78,86.78,0,0,1-62-25.52A87.85,87.85,0,0,1,568,338.46,94.09,94.09,0,0,1,561.08,302,97.28,97.28,0,0,1,568,264.7a84.16,84.16,0,0,1,46.79-47.19,88.54,88.54,0,0,1,34.11-6.58,86.36,86.36,0,0,1,21,2.57,87.82,87.82,0,0,1,36.76,19.18,87.46,87.46,0,0,1,14.13,15.65ZM661.09,257a25.58,25.58,0,0,0-6-1.45,58.58,58.58,0,0,0-6.18-.32,43.72,43.72,0,0,0-16.94,3.3,40.19,40.19,0,0,0-13.8,9.39,44,44,0,0,0-9.23,14.68A52.58,52.58,0,0,0,605.55,302c0,1.6.08,3.42.24,5.45a60.79,60.79,0,0,0,.8,6.18c.37,2.09.83,4.1,1.36,6a22.44,22.44,0,0,0,2.09,5.14Z"/><path class="cls-2" d="M734,228.27a66.33,66.33,0,0,1,5.46-26.81,70.17,70.17,0,0,1,36.76-36.76A66.33,66.33,0,0,1,803,159.24H908.61v46.07H803a22.78,22.78,0,0,0-23,23,23.39,23.39,0,0,0,1.77,9.07A22.49,22.49,0,0,0,794,249.62a23,23,0,0,0,9,1.76h46.06a67.86,67.86,0,0,1,26.89,5.38,68.72,68.72,0,0,1,36.76,36.76,69.67,69.67,0,0,1,0,53.69,69.44,69.44,0,0,1-14.77,21.91,70.29,70.29,0,0,1-22,14.85,66.88,66.88,0,0,1-26.89,5.46H746.8V343.36H849.05a23,23,0,1,0,0-45.91H803A66.33,66.33,0,0,1,776.18,292a69.95,69.95,0,0,1-36.76-36.84A66.87,66.87,0,0,1,734,228.27Z"/><path class="cls-2" d="M1093.85,251.7,1061.74,284a43.22,43.22,0,0,0-6.58-12.12,44,44,0,0,0-9.39-9.07,40.88,40.88,0,0,0-11.32-5.62,41.44,41.44,0,0,0-12.52-1.93,39.58,39.58,0,0,0-16.93,3.7,41.51,41.51,0,0,0-13.81,10.35A49.79,49.79,0,0,0,982,285.09a58.29,58.29,0,0,0-3.37,20.23A42.43,42.43,0,0,0,982,322.17a44.26,44.26,0,0,0,9.23,13.8,42.41,42.41,0,0,0,13.81,9.32,44.14,44.14,0,0,0,29.29,1.6,44.61,44.61,0,0,0,11.16-5.06,41.34,41.34,0,0,0,9.31-8,42,42,0,0,0,6.66-10.52l32.11,32.27a86.37,86.37,0,0,1-14,15.57,88.6,88.6,0,0,1-17.18,11.72,85.74,85.74,0,0,1-19.42,7.3,88,88,0,0,1-21,2.49,86.07,86.07,0,0,1-34.11-6.82A88,88,0,0,1,941,339.35a84.54,84.54,0,0,1-6.9-34A98.08,98.08,0,0,1,941,268.4a95.27,95.27,0,0,1,18.86-29.94,89.26,89.26,0,0,1,27.93-20.15,80.35,80.35,0,0,1,34.11-7.38,82.44,82.44,0,0,1,21.11,2.73,85.17,85.17,0,0,1,37.08,20.71A79.71,79.71,0,0,1,1093.85,251.7Z"/><path class="cls-2" d="M1159,389.43H1115.2V149.13H1159v75.93a51.11,51.11,0,0,1,16.21-8.43,59.22,59.22,0,0,1,17-2.49,74.65,74.65,0,0,1,29.85,6,76,76,0,0,1,24.32,16.53,79,79,0,0,1,16.37,24.56,75.12,75.12,0,0,1,6,29.94v98.24h-44.14V291.19h.32a32.22,32.22,0,0,0-2.57-12.76,33.13,33.13,0,0,0-17.49-17.58,31.66,31.66,0,0,0-12.68-2.57,33.22,33.22,0,0,0-13,2.57,32.71,32.71,0,0,0-17.65,17.58,32,32,0,0,0-2.57,12.76Z"/><path class="cls-2" d="M1466.09,302a92.55,92.55,0,0,1-6.9,35.87,89.7,89.7,0,0,1-18.78,28.73,88.05,88.05,0,0,1-27.85,19.11,87.23,87.23,0,0,1-68.38,0,88.1,88.1,0,0,1-46.8-47.84,92.55,92.55,0,0,1-6.9-35.87,94,94,0,0,1,6.9-36.28,88.71,88.71,0,0,1,18.87-28.81,87.81,87.81,0,0,1,27.93-19,85,85,0,0,1,34.11-6.9,90.1,90.1,0,0,1,34.27,6.5,83,83,0,0,1,27.85,18.46,87.67,87.67,0,0,1,18.78,28.73Q1466.09,281.4,1466.09,302ZM1422,302a51.08,51.08,0,0,0-3.45-19.19,45.89,45.89,0,0,0-9.39-14.76,40.54,40.54,0,0,0-13.89-9.47,45.1,45.1,0,0,0-33.87,0,39.62,39.62,0,0,0-13.8,9.47,45,45,0,0,0-9.23,14.76A52.09,52.09,0,0,0,1335,302a49.57,49.57,0,0,0,3.37,18.45,46,46,0,0,0,9.23,14.77,42.84,42.84,0,0,0,13.8,9.87,40.43,40.43,0,0,0,16.94,3.62,43,43,0,0,0,16.93-3.37,42.16,42.16,0,0,0,13.89-9.48,44.62,44.62,0,0,0,9.39-14.76A51.23,51.23,0,0,0,1422,302Z"/><path class="cls-2" d="M1656.47,302a92.56,92.56,0,0,1-6.91,35.87,89.54,89.54,0,0,1-18.78,28.73,87.94,87.94,0,0,1-27.85,19.11,87.23,87.23,0,0,1-68.38,0,88,88,0,0,1-46.79-47.84,92.55,92.55,0,0,1-6.9-35.87,94,94,0,0,1,6.9-36.28,88.85,88.85,0,0,1,18.86-28.81,87.81,87.81,0,0,1,27.93-19,85.1,85.1,0,0,1,34.11-6.9,90.1,90.1,0,0,1,34.27,6.5,82.92,82.92,0,0,1,27.85,18.46,87.51,87.51,0,0,1,18.78,28.73A97.31,97.31,0,0,1,1656.47,302Zm-44.15,0a51.08,51.08,0,0,0-3.45-19.19,45.56,45.56,0,0,0-9.39-14.76,40.59,40.59,0,0,0-13.88-9.47,45.1,45.1,0,0,0-33.87,0,39.75,39.75,0,0,0-13.81,9.47,45.19,45.19,0,0,0-9.23,14.76,52.29,52.29,0,0,0-3.37,19.19,49.77,49.77,0,0,0,3.37,18.45,46.2,46.2,0,0,0,9.23,14.77,43,43,0,0,0,13.81,9.87,40.38,40.38,0,0,0,16.93,3.62,43.08,43.08,0,0,0,16.94-3.37,42.22,42.22,0,0,0,13.88-9.48,44.31,44.31,0,0,0,9.39-14.76A51.23,51.23,0,0,0,1612.32,302Z"/><path class="cls-2" d="M1724.85,389.43H1680.7V149.13h44.15Z"/></g></g></svg>