<?xml version="1.0" encoding="UTF-8"?>
<svg id="Layer_2" data-name="Layer 2" xmlns="http://www.w3.org/2000/svg" viewBox="0 0 855.04 1075.24">
  <defs>
    <style>
      .cls-1 {
        fill: #56cc99;
      }

      .cls-1, .cls-2 {
        fill-rule: evenodd;
      }

      .cls-1, .cls-2, .cls-3, .cls-4 {
        stroke-width: 0px;
      }

      .cls-2 {
        fill: #215679;
      }

      .cls-3 {
        fill: #fff;
      }

      .cls-4 {
        fill: #212121;
      }
    </style>
  </defs>
  <g id="main_logo" data-name="main logo">
    <g id="eSchool_saas_logo" data-name="eSchool saas logo">
      <g>
        <path class="cls-1" d="m271.95,659.55c42.35-21.97,90.4-20.32,131.33,3.6,1.25.74,2.66.74,3.91,0,1.25-.71,1.96-1.96,1.96-3.37v-98.87c0-1.05-.34-1.93-1.05-2.66-50.91-53.72-130.14-69.25-197.43-39-1.93.88-2.83,3.15-1.98,5.13l57.88,133.26c.45,1.02,1.22,1.76,2.3,2.15,1.02.37,2.1.28,3.09-.23h0Zm286.13,0h0c-42.35-21.97-90.42-20.32-131.33,3.6-1.25.74-2.66.74-3.91,0-1.25-.71-1.96-1.96-1.96-3.37v-98.87c0-1.05.34-1.93,1.08-2.66,50.88-53.72,130.11-69.25,197.4-39,1.93.88,2.84,3.15,1.98,5.13l-57.88,133.26c-.45,1.02-1.22,1.76-2.27,2.15-1.08.37-2.13.28-3.12-.23h0Z"/>
        <path class="cls-2" d="m437.47,695.12c33.19-28.8,78.63-22.76,115.6-5.07,1.22.6,2.58.51,3.74-.23,1.19-.71,1.84-1.9,1.84-3.29v-11.08c0-1.45-.71-2.69-2.01-3.43-42.97-24.15-92.75-21.09-133.26,7.14-3.66,2.58-13.04,2.58-16.72,0-40.51-28.23-90.25-31.29-133.26-7.14-1.28.74-2.01,1.98-2.01,3.43v11.08c0,1.39.65,2.58,1.84,3.29,1.16.74,2.52.82,3.77.23,36.94-17.69,82.38-23.73,115.57,5.07.03.03.09.06.11.08,12.93,10.43,31.75,10.43,44.67,0,.03-.03.08-.06.11-.08h0Z"/>
        <path class="cls-2" d="m570.7,670.29l46.38-106.81c.74-1.7,2.55-2.64,4.39-2.27,1.81.4,3.09,1.96,3.09,3.83v35.04c0,.68-.14,1.28-.45,1.87l-46.4,85.18c-.88,1.59-2.64,2.38-4.39,1.93-1.73-.45-2.92-1.98-2.92-3.8v-13.41c0-.57.08-1.05.31-1.56h0Z"/>
        <path class="cls-2" d="m259.34,670.29l-46.37-106.81c-.74-1.7-2.55-2.64-4.37-2.27-1.84.4-3.12,1.96-3.12,3.83v35.04c0,.68.14,1.28.48,1.87l46.37,85.18c.88,1.59,2.64,2.38,4.39,1.93,1.73-.45,2.95-1.98,2.95-3.8v-13.41c0-.57-.11-1.05-.34-1.56h0Z"/>
        <path class="cls-2" d="m62.56,180.26c151.34,84.53,254.72,26.87,310.17-172.94,1.3-4.82,5.95-7.91,10.91-7.23,4.96.65,8.62,4.76,8.7,9.72,3.69,243.92-126.94,465.65-330.69,583.94-4.37,2.52-9.84,1.45-12.93-2.52-3.12-4.03-2.75-9.64.85-13.21,67.01-66.7,94.73-138.22,83.14-214.53-.31-2.18.77-4.25,2.78-5.24,1.98-.96,4.28-.54,5.81,1.08,13.49,14.29,26.79,28.74,39.91,43.43,1.64,1.79,4.25,2.18,6.35.91,2.07-1.28,2.92-3.8,2.04-6.09-29.76-75.6-73.39-130.22-139.72-202.31-7.4-8.05,3.12-20.32,12.67-15h0Z"/>
        <path class="cls-2" d="m249.39,143.67c-17.55,24.63-51.73,30.36-76.34,12.81-24.6-17.55-30.33-51.7-12.78-76.34,17.55-24.6,51.7-30.33,76.31-12.78,24.63,17.52,30.36,51.7,12.81,76.31h0Z"/>
        <path class="cls-2" d="m767.48,180.26c-151.34,84.53-254.72,26.87-310.14-172.94-1.33-4.82-5.98-7.91-10.94-7.23-4.96.65-8.62,4.76-8.7,9.72-3.68,243.92,126.94,465.65,330.69,583.94,4.39,2.52,9.84,1.45,12.93-2.52,3.12-4.03,2.75-9.64-.85-13.21-67.01-66.7-94.71-138.22-83.14-214.53.31-2.18-.77-4.25-2.78-5.24-1.96-.96-4.28-.54-5.78,1.08-13.49,14.29-26.82,28.74-39.94,43.43-1.62,1.79-4.25,2.18-6.35.91-2.07-1.28-2.92-3.8-2.01-6.09,29.74-75.6,73.39-130.22,139.69-202.31,7.4-8.05-3.12-20.32-12.67-15h0Z"/>
        <path class="cls-2" d="m580.65,143.67c17.55,24.63,51.73,30.36,76.34,12.81,24.61-17.55,30.36-51.7,12.79-76.34-17.52-24.6-51.7-30.33-76.31-12.78-24.63,17.52-30.36,51.7-12.81,76.31h0Z"/>
        <path class="cls-1" d="m422.47,314.14l16.07,49.78c1.08,3.29,4,5.44,7.46,5.41l52.36-.08c3.43,0,6.41,2.13,7.45,5.41,1.08,3.29-.06,6.75-2.86,8.76l-42.38,30.67c-2.81,2.04-3.94,5.5-2.86,8.79l16.27,49.75c1.08,3.29-.06,6.75-2.83,8.76-2.81,2.04-6.43,2.04-9.24,0l-42.26-30.84c-2.81-2.04-6.43-2.04-9.24,0l-42.26,30.84c-2.78,2.04-6.44,2.04-9.24,0-2.78-2.01-3.91-5.47-2.81-8.76l16.24-49.75c1.08-3.29-.06-6.75-2.86-8.79l-42.38-30.67c-2.81-2.01-3.94-5.47-2.86-8.76,1.08-3.29,4-5.41,7.46-5.41l52.36.08c3.46.03,6.38-2.13,7.46-5.41l16.07-49.78c1.08-3.29,4-5.44,7.46-5.44s6.38,2.15,7.46,5.44h0Z"/>
        <path class="cls-3" d="m335.97,596.31c.08.17.12.42.12.75,0,.5-.38,1.25-1.13,2.26-.25.33-.79.88-1.63,1.63-.84.75-1.96,1.5-3.38,2.26-1.42.75-3.15,1.42-5.2,2.01-2.05.58-4.45.88-7.21.88-1.92,0-3.8-.44-5.64-1.32-1.84-.88-3.47-2.17-4.89-3.89-1.42-1.71-2.59-3.84-3.51-6.39-.92-2.55-1.38-5.53-1.38-8.96s.42-6.31,1.25-9.15c.83-2.84,1.9-5.35,3.2-7.52,1.29-2.17,2.74-3.88,4.32-5.14,1.59-1.25,3.13-1.88,4.64-1.88,1.34,0,2.69.27,4.07.81,1.38.54,2.63,1.23,3.76,2.07,1.13.84,2.02,1.78,2.69,2.82.67,1.05,1,2.11,1,3.2,0,1.25-.56,2.55-1.69,3.88-1.13,1.34-2.49,2.57-4.07,3.7-1.59,1.13-3.18,2.05-4.76,2.76-1.59.71-2.84,1.07-3.76,1.07-.5,0-.94-.23-1.32-.69-.38-.46-.56-1.02-.56-1.69,0-1.17.52-2.09,1.57-2.76,1.04-.67,2.19-1.27,3.45-1.82,1.25-.54,2.4-1.19,3.45-1.94,1.04-.75,1.57-1.8,1.57-3.13,0-.17-.21-.58-.63-1.25-.42-.67-1.55-1-3.38-1-.84,0-1.8.48-2.88,1.44-1.09.96-2.13,2.26-3.13,3.88-1,1.63-1.84,3.55-2.51,5.76-.67,2.21-1,4.62-1,7.21,0,2.17.4,4.14,1.19,5.89.79,1.75,1.82,3.24,3.07,4.45,1.25,1.21,2.71,2.15,4.39,2.82,1.67.67,3.38,1,5.14,1,1.25,0,2.61-.27,4.07-.81,1.46-.54,2.84-1.13,4.14-1.75,1.29-.63,2.42-1.21,3.38-1.75.96-.54,1.57-.81,1.82-.81s.52.13.81.38c.29.25.48.5.56.75Z"/>
        <path class="cls-3" d="m523.15,593.18c0,3.76-.67,6.71-2,8.84-1.34,2.13-3.3,4.12-5.89,5.95-.67.42-1.59.92-2.76,1.5-1.17.59-2.47,1.13-3.89,1.63-1.42.5-2.92.92-4.51,1.25-1.59.33-3.05.5-4.39.5-3.76,0-6.6-.4-8.52-1.19-1.92-.79-2.88-1.73-2.88-2.82,0-1.17.33-2.13,1-2.88.67-.75,1.25-1.17,1.75-1.25l1.38,1c.42.42,1,.86,1.75,1.32.75.46,1.96.69,3.63.69,1.59,0,3.51-.27,5.76-.82,2.26-.54,4.41-1.38,6.45-2.51,2.05-1.13,3.8-2.53,5.26-4.2,1.46-1.67,2.19-3.59,2.19-5.76,0-1.92-1.44-3.7-4.32-5.33-2.88-1.63-7.42-2.74-13.6-3.32-3.18-.25-6.31-.65-9.4-1.19-3.09-.54-5.87-1.29-8.33-2.26-2.47-.96-4.45-2.17-5.95-3.63-1.5-1.46-2.26-3.28-2.26-5.45s.58-4.09,1.75-6.02c1.17-1.92,2.61-3.7,4.32-5.33,1.71-1.63,3.49-3.07,5.33-4.32,1.84-1.25,3.38-2.3,4.64-3.13,1-.58,2.4-1.36,4.2-2.32,1.79-.96,3.72-1.88,5.76-2.76,2.05-.88,4.09-1.63,6.14-2.26,2.05-.63,3.78-.94,5.2-.94,1.67,0,2.8.46,3.38,1.38.58.92.88,2.21.88,3.88,0,1.42-.17,2.93-.5,4.51-.33,1.59-.71,3.13-1.13,4.64-.42,1.5-.81,2.82-1.19,3.95-.38,1.13-.65,1.86-.82,2.19-.33.75-.71,1.25-1.13,1.5-.42.25-.71.38-.88.38-.33,0-.5-.21-.5-.63,0-.25.06-.73.19-1.44.13-.71.29-1.57.5-2.57.21-1,.38-2.09.5-3.26.12-1.17.19-2.34.19-3.51,0-1.84-.08-3.17-.25-4.01-.17-.83-.84-1.25-2.01-1.25s-2.76.31-4.76.94c-2,.63-4.05,1.4-6.14,2.32-2.26,1-4.45,2.3-6.58,3.88-2.13,1.59-4.03,3.22-5.7,4.89-1.67,1.67-3.03,3.28-4.07,4.83-1.04,1.55-1.57,2.78-1.57,3.7,0,1,.69,1.94,2.07,2.82,1.38.88,3.13,1.65,5.26,2.32,2.13.67,4.49,1.25,7.08,1.75,2.59.5,5.14.88,7.65,1.13,2.09.25,4.39.58,6.89,1,2.51.42,4.84,1.09,7.02,2.01,2.17.92,4.01,2.15,5.51,3.7,1.5,1.55,2.26,3.53,2.26,5.95Z"/>
      </g>
      <g id="text">
        <g>
          <path class="cls-4" d="m118.13,903.84c0,3.78-1.65,5.67-4.96,5.67H37.8v.47c0,3.28.39,6.48,1.18,9.6.79,3.12,2.13,5.85,4.02,8.19,1.89,2.34,4.37,4.22,7.44,5.62,3.07,1.41,6.97,2.11,11.69,2.11,3.78,0,7.8-.08,12.05-.24,4.25-.15,8.46-.31,12.64-.47,4.17-.16,8.07-.35,11.7-.59,3.62-.24,6.62-.51,8.98-.83h.71c2.99,0,4.49,1.27,4.49,3.79v18.09c0,1.91-.32,3.33-.95,4.28-.63.95-1.97,1.67-4.02,2.14-7.56,1.91-14.97,3.33-22.21,4.28-7.25.95-15.99,1.43-26.23,1.43-7.09,0-14.18-1.03-21.26-3.07-7.09-2.04-13.47-5.43-19.14-10.16-5.67-4.73-10.24-10.99-13.7-18.78-3.47-7.8-5.2-17.37-5.2-28.71v-16.54c0-9.45,1.34-18.03,4.02-25.75,2.68-7.71,6.57-14.25,11.69-19.61,5.12-5.35,11.38-9.49,18.78-12.4,7.4-2.91,15.83-4.37,25.28-4.37s18.07,1.58,25.4,4.72c7.32,3.15,13.43,7.48,18.31,13,4.88,5.51,8.54,12.05,10.99,19.61,2.44,7.56,3.66,15.83,3.66,24.81v13.7Zm-37.33-18.9c0-8.82-1.89-15.39-5.67-19.73-3.78-4.33-8.98-6.5-15.59-6.5s-11.89,2.21-15.83,6.62c-3.94,4.41-5.91,10.95-5.91,19.61v.94h43v-.94Z"/>
          <path class="cls-4" d="m257.76,915.65c0,6.3-1.1,12.52-3.31,18.67-2.21,6.14-5.87,11.66-10.99,16.54-5.12,4.88-11.78,8.86-19.96,11.93-8.19,3.07-18.27,4.61-30.24,4.61-9.45,0-17.76-.47-24.93-1.42-7.17-.95-13.74-2.2-19.73-3.78-1.26-.31-2.36-.86-3.31-1.65-.95-.79-1.42-1.81-1.42-3.07v-23.15c0-1.73.39-2.91,1.18-3.54.79-.63,1.81-.95,3.07-.95h.71c2.36.32,5.63.63,9.8.95,4.17.32,8.46.59,12.88.83,4.41.24,8.62.47,12.64.71s7.21.35,9.57.35c8.19,0,13.74-1.34,16.66-4.02,2.91-2.68,4.37-6.85,4.37-12.52,0-3.46-1.06-6.42-3.19-8.86-2.13-2.44-6.26-5.47-12.4-9.1l-32.6-19.37c-5.52-3.31-10.04-6.69-13.59-10.16-3.54-3.46-6.38-7.09-8.51-10.87s-3.62-7.68-4.49-11.7c-.87-4.02-1.3-8.15-1.3-12.4,0-6.46.98-12.48,2.95-18.07,1.97-5.59,5.32-10.47,10.04-14.65,4.73-4.17,10.95-7.44,18.67-9.8,7.72-2.36,17.32-3.54,28.82-3.54,4.25,0,8.86.16,13.82.47,4.96.32,9.72.71,14.29,1.18,4.57.47,8.82,1.03,12.76,1.65,3.94.63,7.01,1.26,9.21,1.89.95.32,1.77.79,2.48,1.42.71.63,1.06,1.58,1.06,2.83v23.86c0,1.1-.28,2.05-.83,2.84-.55.79-1.62,1.18-3.19,1.18h-.47c-1.73-.15-4.53-.35-8.39-.59-3.86-.24-8.23-.51-13.11-.83-4.88-.31-9.89-.59-15-.83-5.12-.24-9.65-.35-13.58-.35-6.77,0-11.54,1.03-14.29,3.07-2.76,2.05-4.13,5.2-4.13,9.45,0,1.73.24,3.23.71,4.49.47,1.26,1.3,2.48,2.48,3.66,1.18,1.18,2.79,2.44,4.84,3.78,2.04,1.34,4.64,2.88,7.8,4.61l30.24,16.3c12.29,6.62,20.67,13.86,25.16,21.74,4.49,7.88,6.73,16.62,6.73,26.23Z"/>
          <path class="cls-4" d="m369.75,958.42c0,1.74-.4,2.95-1.18,3.66-.79.71-2.05,1.3-3.78,1.77-3.31.79-7.6,1.57-12.88,2.36-5.28.79-11.46,1.18-18.55,1.18-16.7,0-30.05-5.12-40.05-15.36-10-10.24-15-25.04-15-44.42v-19.85c0-19.37,5-34.18,15-44.42,10-10.24,23.35-15.36,40.05-15.36,7.09,0,13.27.39,18.55,1.18,5.28.79,9.57,1.58,12.88,2.36,1.73.47,2.99,1.06,3.78,1.77.79.71,1.18,1.93,1.18,3.66v21.03c0,1.26-.44,2.24-1.3,2.95-.87.71-1.93,1.06-3.19,1.06h-.47c-4.41-.47-8.62-.86-12.64-1.18-4.02-.31-9.41-.47-16.18-.47-2.68,0-5.2.44-7.56,1.3-2.36.87-4.41,2.36-6.14,4.49-1.73,2.13-3.11,4.96-4.13,8.5-1.03,3.54-1.54,7.92-1.54,13.11v19.85c0,5.2.51,9.57,1.54,13.11,1.02,3.54,2.4,6.38,4.13,8.51,1.73,2.13,3.78,3.62,6.14,4.49,2.36.87,4.88,1.3,7.56,1.3,6.77,0,12.17-.15,16.18-.47,4.02-.31,8.23-.71,12.64-1.18h.47c1.26,0,2.32.35,3.19,1.06.86.71,1.3,1.69,1.3,2.95v21.03Z"/>
          <path class="cls-4" d="m510.09,960.31c0,1.26-.51,2.4-1.54,3.43s-2.17,1.54-3.43,1.54h-28.59c-1.26,0-2.36-.51-3.31-1.53-.95-1.02-1.42-2.16-1.42-3.42v-78.5c0-4.09-.24-7.54-.71-10.37s-1.34-5.11-2.6-6.83c-1.26-1.73-3.03-2.95-5.32-3.66-2.29-.71-5.24-1.06-8.86-1.06s-7.01.71-10.63,2.12c-3.62,1.41-7.48,3.22-11.58,5.42v92.88c0,1.26-.47,2.4-1.42,3.42-.95,1.02-2.05,1.53-3.31,1.53h-28.59c-1.26,0-2.4-.51-3.43-1.54-1.03-1.02-1.54-2.16-1.54-3.43v-171.53c0-1.26.47-2.36,1.42-3.31s2.04-1.42,3.31-1.42h28.82c1.26,0,2.36.48,3.31,1.42.94.95,1.42,2.05,1.42,3.31v49.92c5.98-3.96,11.73-6.74,17.25-8.33,5.51-1.59,11.81-2.38,18.9-2.38,8.51,0,15.48,1.42,20.91,4.25,5.43,2.84,9.69,6.66,12.76,11.46,3.07,4.81,5.2,10.48,6.38,17.01,1.18,6.54,1.77,13.51,1.77,20.91v78.68Z"/>
          <path class="cls-4" d="m653.27,905.97c0,9.45-1.3,17.96-3.91,25.52-2.61,7.56-6.39,13.98-11.36,19.26-4.97,5.28-11.13,9.37-18.47,12.29-7.34,2.91-15.82,4.37-25.45,4.37s-18.11-1.46-25.45-4.37c-7.34-2.91-13.53-7.01-18.58-12.29-5.05-5.28-8.88-11.7-11.48-19.26-2.61-7.56-3.91-16.07-3.91-25.52v-16.54c0-9.45,1.3-17.96,3.91-25.52,2.6-7.56,6.43-13.98,11.48-19.25,5.05-5.28,11.25-9.37,18.58-12.29,7.34-2.91,15.82-4.37,25.45-4.37s18.11,1.46,25.45,4.37c7.34,2.92,13.49,7.01,18.47,12.29,4.97,5.28,8.76,11.7,11.36,19.25,2.6,7.56,3.91,16.07,3.91,25.52v16.54Zm-38.27-16.54c0-19.21-6.97-28.82-20.91-28.82-6.89,0-12.14,2.4-15.74,7.21-3.6,4.81-5.41,12.01-5.41,21.62v16.54c0,9.61,1.8,16.86,5.41,21.74,3.6,4.88,8.85,7.32,15.74,7.32,13.94,0,20.91-9.69,20.91-29.06v-16.54Z"/>
          <path class="cls-4" d="m792.43,905.97c0,9.45-1.3,17.96-3.91,25.52-2.61,7.56-6.39,13.98-11.36,19.26-4.97,5.28-11.13,9.37-18.47,12.29-7.34,2.91-15.82,4.37-25.45,4.37s-18.11-1.46-25.45-4.37c-7.34-2.91-13.53-7.01-18.58-12.29-5.05-5.28-8.88-11.7-11.48-19.26-2.61-7.56-3.91-16.07-3.91-25.52v-16.54c0-9.45,1.3-17.96,3.91-25.52,2.6-7.56,6.43-13.98,11.48-19.25,5.05-5.28,11.25-9.37,18.58-12.29,7.34-2.91,15.82-4.37,25.45-4.37s18.11,1.46,25.45,4.37c7.34,2.92,13.49,7.01,18.47,12.29,4.97,5.28,8.76,11.7,11.36,19.25,2.6,7.56,3.91,16.07,3.91,25.52v16.54Zm-38.27-16.54c0-19.21-6.97-28.82-20.91-28.82-6.89,0-12.14,2.4-15.74,7.21-3.6,4.81-5.41,12.01-5.41,21.62v16.54c0,9.61,1.8,16.86,5.41,21.74,3.6,4.88,8.85,7.32,15.74,7.32,13.94,0,20.91-9.69,20.91-29.06v-16.54Z"/>
          <path class="cls-4" d="m855.04,960.31c0,1.26-.44,2.4-1.3,3.43-.87,1.03-1.93,1.54-3.19,1.54h-28.82c-1.26,0-2.4-.51-3.43-1.54-1.03-1.02-1.54-2.16-1.54-3.43v-171.53c0-1.26.51-2.36,1.54-3.31,1.02-.94,2.16-1.42,3.43-1.42h28.82c1.26,0,2.32.47,3.19,1.42.86.95,1.3,2.05,1.3,3.31v171.53Z"/>
        </g>
        <g>
          <path class="cls-4" d="m174.84,1060.12c0,1.81-.28,3.63-.83,5.44-.56,1.81-1.53,3.44-2.91,4.88-1.39,1.44-3.29,2.6-5.71,3.48-2.42.88-5.5,1.32-9.23,1.32-2.67,0-5.02-.11-7.03-.34-2.02-.23-3.86-.47-5.52-.72-.66-.1-1.06-.25-1.21-.45-.15-.2-.23-.5-.23-.91v-3.02c0-.4.12-.71.38-.91.25-.2.55-.3.91-.3h.23c.86.1,1.83.18,2.91.23,1.08.05,2.19.09,3.33.11s2.24.05,3.33.08c1.08.03,2.05.04,2.91.04,2.27,0,4.15-.21,5.63-.64,1.49-.43,2.66-1.03,3.52-1.82.86-.78,1.46-1.73,1.81-2.83.35-1.11.53-2.32.53-3.63,0-.96-.15-1.83-.45-2.61-.3-.78-.81-1.55-1.51-2.31-.71-.76-1.64-1.55-2.8-2.38-1.16-.83-2.6-1.78-4.31-2.84l-7.33-4.46c-3.48-2.12-6.09-4.25-7.83-6.39-1.74-2.14-2.61-4.73-2.61-7.75,0-4.59,1.58-7.96,4.73-10.13,3.15-2.17,7.62-3.25,13.42-3.25,1.11,0,2.28.03,3.52.08,1.23.05,2.44.11,3.63.19,1.18.08,2.31.18,3.36.3,1.06.13,1.94.24,2.65.34.86.15,1.29.58,1.29,1.29v3.25c0,.81-.43,1.21-1.29,1.21h-.15c-1.66-.1-3.69-.2-6.09-.3-2.39-.1-4.7-.15-6.92-.15-3.93,0-6.77.5-8.51,1.51-1.74,1.01-2.61,2.9-2.61,5.67,0,1.77.65,3.3,1.96,4.61,1.31,1.31,3.39,2.82,6.26,4.54l6.94,4.16c2.16,1.31,4,2.57,5.5,3.78,1.51,1.21,2.74,2.42,3.69,3.63s1.63,2.47,2.04,3.78c.4,1.31.6,2.72.6,4.23Z"/>
          <path class="cls-4" d="m230.5,1073.5c0,.81-.43,1.21-1.29,1.21h-4.46c-.35,0-.63-.11-.83-.34-.2-.23-.35-.49-.45-.79l-4.92-17.39h-19.58l-4.84,17.39c-.1.3-.28.57-.53.79-.25.23-.53.34-.83.34h-4.46c-.86,0-1.29-.4-1.29-1.21,0-.25.02-.43.08-.53l13.99-49.23c.3-1.16.74-2.1,1.32-2.84.58-.73,1.22-1.31,1.93-1.74.71-.43,1.45-.73,2.23-.91.78-.18,1.52-.26,2.23-.26s1.44.08,2.19.23c.76.15,1.49.44,2.19.87.71.43,1.35,1.01,1.93,1.74.58.73,1.02,1.68,1.32,2.83l13.99,49.3c.05.1.08.28.08.53Zm-20.27-48.17c-.25-.91-.73-1.36-1.44-1.36-.76,0-1.26.45-1.51,1.36l-6.88,24.88h16.71l-6.88-24.88Z"/>
          <path class="cls-4" d="m285.92,1073.5c0,.81-.43,1.21-1.29,1.21h-4.46c-.35,0-.63-.11-.83-.34-.2-.23-.35-.49-.45-.79l-4.92-17.39h-19.58l-4.84,17.39c-.1.3-.28.57-.53.79-.25.23-.53.34-.83.34h-4.46c-.86,0-1.29-.4-1.29-1.21,0-.25.02-.43.08-.53l13.99-49.23c.3-1.16.74-2.1,1.32-2.84.58-.73,1.22-1.31,1.93-1.74.71-.43,1.45-.73,2.23-.91.78-.18,1.52-.26,2.23-.26s1.44.08,2.19.23c.76.15,1.49.44,2.19.87.71.43,1.35,1.01,1.93,1.74.58.73,1.02,1.68,1.32,2.83l13.99,49.3c.05.1.08.28.08.53Zm-20.27-48.17c-.25-.91-.73-1.36-1.44-1.36-.76,0-1.26.45-1.51,1.36l-6.88,24.88h16.71l-6.88-24.88Z"/>
          <path class="cls-4" d="m332.28,1060.12c0,1.81-.28,3.63-.83,5.44-.56,1.81-1.53,3.44-2.91,4.88-1.39,1.44-3.29,2.6-5.71,3.48-2.42.88-5.5,1.32-9.23,1.32-2.67,0-5.02-.11-7.03-.34-2.02-.23-3.86-.47-5.52-.72-.66-.1-1.06-.25-1.21-.45-.15-.2-.23-.5-.23-.91v-3.02c0-.4.12-.71.38-.91.25-.2.55-.3.91-.3h.23c.86.1,1.83.18,2.91.23,1.08.05,2.19.09,3.33.11s2.24.05,3.33.08c1.08.03,2.05.04,2.91.04,2.27,0,4.15-.21,5.63-.64,1.49-.43,2.66-1.03,3.52-1.82.86-.78,1.46-1.73,1.81-2.83.35-1.11.53-2.32.53-3.63,0-.96-.15-1.83-.45-2.61-.3-.78-.81-1.55-1.51-2.31-.71-.76-1.64-1.55-2.8-2.38-1.16-.83-2.6-1.78-4.31-2.84l-7.33-4.46c-3.48-2.12-6.09-4.25-7.83-6.39-1.74-2.14-2.61-4.73-2.61-7.75,0-4.59,1.58-7.96,4.73-10.13,3.15-2.17,7.62-3.25,13.42-3.25,1.11,0,2.28.03,3.52.08,1.23.05,2.44.11,3.63.19,1.18.08,2.31.18,3.36.3,1.06.13,1.94.24,2.65.34.86.15,1.29.58,1.29,1.29v3.25c0,.81-.43,1.21-1.29,1.21h-.15c-1.66-.1-3.69-.2-6.09-.3-2.39-.1-4.7-.15-6.92-.15-3.93,0-6.77.5-8.51,1.51-1.74,1.01-2.61,2.9-2.61,5.67,0,1.77.65,3.3,1.96,4.61,1.31,1.31,3.39,2.82,6.26,4.54l6.94,4.16c2.16,1.31,4,2.57,5.5,3.78,1.51,1.21,2.74,2.42,3.69,3.63s1.63,2.47,2.04,3.78c.4,1.31.6,2.72.6,4.23Z"/>
          <path class="cls-4" d="m415.91,1019.81c0,.2-.03.35-.07.45l-13.91,49.23c-.35,1.21-.82,2.18-1.4,2.91-.58.73-1.21,1.31-1.89,1.74-.68.43-1.41.72-2.19.87s-1.53.23-2.23.23-1.44-.08-2.19-.23-1.49-.44-2.19-.87c-.71-.43-1.35-1.01-1.93-1.74-.58-.73-1.05-1.7-1.4-2.91l-13.99-49.23c-.05-.1-.08-.25-.08-.45,0-.4.13-.72.38-.95.25-.23.58-.34.98-.34h4.38c.3,0,.58.11.83.34.25.23.43.49.53.79l13.16,48.17c.3,1.06.8,1.59,1.51,1.59.65,0,1.13-.53,1.44-1.59l13.23-48.17c.1-.3.26-.57.49-.79.23-.23.49-.34.79-.34h4.46c.86,0,1.29.43,1.29,1.29Z"/>
          <path class="cls-4" d="m461.58,1073.8c0,.25-.06.48-.19.68-.13.2-.32.33-.57.38-.71.1-1.66.16-2.87.19s-2.51.06-3.89.11c-1.39.05-2.79.08-4.2.08h-3.78c-5.34,0-9.36-1.08-12.06-3.25-2.7-2.17-4.04-5.77-4.04-10.81v-29.11c0-5.04,1.35-8.64,4.04-10.81,2.7-2.17,6.72-3.25,12.06-3.25,1.11,0,2.36.01,3.74.04,1.39.03,2.76.05,4.12.08,1.36.03,2.65.08,3.86.15,1.21.08,2.22.14,3.02.19.25.05.44.18.57.38.12.2.19.43.19.68v3.78c0,.61-.28.91-.83.91h-14.59c-2.02,0-3.63.14-4.84.42-1.21.28-2.14.73-2.8,1.36-.66.63-1.1,1.45-1.32,2.46-.23,1.01-.34,2.22-.34,3.63v10.51h23.21c.4,0,.76.15,1.06.45.3.3.45.65.45,1.04v2.84c0,.4-.15.75-.45,1.05-.3.3-.66.45-1.06.45h-23.21v12.75c0,1.47.11,2.69.34,3.68s.67,1.8,1.32,2.43c.65.63,1.59,1.09,2.8,1.37,1.21.28,2.82.42,4.84.42h14.59c.55,0,.83.3.83.91v3.86Z"/>
          <path class="cls-4" d="m517.61,1073.73c0,.66-.33.98-.98.98h-4.84c-.45,0-.82-.04-1.1-.11-.28-.08-.57-.37-.87-.87l-13.54-22.53h-1.97c-1.26,0-2.46-.01-3.59-.04-1.13-.02-2.71-.09-4.73-.19v22.23c0,.4-.13.76-.38,1.06-.25.3-.58.45-.98.45h-4.08c-.4,0-.73-.15-.98-.45-.25-.3-.38-.65-.38-1.06v-52.93c0-.55.12-.95.38-1.17.25-.23.73-.39,1.44-.49.81-.1,1.75-.19,2.84-.26,1.08-.08,2.22-.14,3.4-.19,1.18-.05,2.38-.09,3.59-.11,1.21-.03,2.37-.04,3.48-.04,2.97,0,5.76.28,8.36.83,2.6.56,4.84,1.46,6.73,2.72,1.89,1.26,3.38,2.92,4.46,4.99,1.08,2.07,1.63,4.64,1.63,7.71v.53c0,2.12-.29,4.02-.87,5.71-.58,1.69-1.4,3.16-2.46,4.42-1.06,1.26-2.32,2.32-3.78,3.18-1.46.86-3.05,1.51-4.76,1.97l13.76,22.99c.15.25.23.48.23.68Zm-8.92-39.47c0-3.78-1.21-6.4-3.63-7.86-2.42-1.46-6-2.19-10.74-2.19h-2.04c-.76,0-1.53.01-2.31.04-.78.03-1.53.05-2.23.08-.71.03-1.29.06-1.74.11v20.72c1.66.05,3.25.09,4.76.11,1.51.03,2.7.04,3.55.04,2.32,0,4.37-.16,6.16-.49,1.79-.33,3.29-.89,4.5-1.7,1.21-.81,2.13-1.88,2.76-3.21.63-1.33.94-3.04.94-5.1v-.53Z"/>
          <path class="cls-4" d="m565.93,1060.12c0,1.81-.28,3.63-.83,5.44s-1.52,3.44-2.91,4.88-3.29,2.6-5.71,3.48c-2.42.88-5.5,1.32-9.22,1.32-2.67,0-5.02-.11-7.03-.34-2.02-.23-3.86-.47-5.52-.72-.66-.1-1.06-.25-1.21-.45-.15-.2-.23-.5-.23-.91v-3.02c0-.4.13-.71.38-.91.25-.2.55-.3.91-.3h.23c.86.1,1.83.18,2.91.23,1.08.05,2.19.09,3.33.11,1.13.03,2.24.05,3.33.08,1.08.03,2.05.04,2.91.04,2.27,0,4.15-.21,5.63-.64,1.49-.43,2.66-1.03,3.52-1.82.86-.78,1.46-1.73,1.81-2.83.35-1.11.53-2.32.53-3.63,0-.96-.15-1.83-.45-2.61-.3-.78-.81-1.55-1.51-2.31-.71-.76-1.64-1.55-2.8-2.38-1.16-.83-2.6-1.78-4.31-2.84l-7.33-4.46c-3.48-2.12-6.09-4.25-7.83-6.39-1.74-2.14-2.61-4.73-2.61-7.75,0-4.59,1.57-7.96,4.73-10.13,3.15-2.17,7.62-3.25,13.42-3.25,1.11,0,2.28.03,3.52.08,1.24.05,2.45.11,3.63.19,1.18.08,2.31.18,3.37.3,1.06.13,1.94.24,2.65.34.86.15,1.29.58,1.29,1.29v3.25c0,.81-.43,1.21-1.29,1.21h-.15c-1.66-.1-3.69-.2-6.09-.3-2.4-.1-4.7-.15-6.92-.15-3.93,0-6.77.5-8.51,1.51-1.74,1.01-2.61,2.9-2.61,5.67,0,1.77.65,3.3,1.96,4.61,1.31,1.31,3.39,2.82,6.26,4.54l6.94,4.16c2.16,1.31,4,2.57,5.5,3.78,1.51,1.21,2.74,2.42,3.69,3.63.96,1.21,1.63,2.47,2.04,3.78.4,1.31.6,2.72.6,4.23Z"/>
          <path class="cls-4" d="m590.81,1073.2c0,.4-.13.76-.38,1.06-.25.3-.58.45-.98.45h-4.16c-.4,0-.73-.15-.98-.45-.25-.3-.38-.65-.38-1.06v-53.23c0-.4.12-.74.38-1.02.25-.28.58-.42.98-.42h4.16c.4,0,.73.14.98.42.25.28.38.62.38,1.02v53.23Z"/>
          <path class="cls-4" d="m650.54,1051.5c0,4.18-.51,7.78-1.52,10.78-1.01,3-2.42,5.46-4.24,7.37-1.82,1.92-3.98,3.33-6.48,4.23s-5.24,1.36-8.22,1.36-5.72-.45-8.22-1.36-4.66-2.32-6.48-4.23c-1.82-1.92-3.25-4.37-4.28-7.37-1.04-3-1.55-6.59-1.55-10.78v-9.75c0-4.18.52-7.78,1.55-10.77,1.03-3,2.46-5.46,4.28-7.37,1.82-1.92,3.98-3.33,6.48-4.23s5.24-1.36,8.22-1.36,5.72.45,8.22,1.36,4.66,2.32,6.48,4.23c1.82,1.92,3.23,4.37,4.24,7.37,1.01,3,1.52,6.59,1.52,10.77v9.75Zm-7.03-9.75c0-3.18-.31-5.87-.94-8.09-.63-2.22-1.52-4.03-2.68-5.44-1.16-1.41-2.56-2.43-4.22-3.06-1.66-.63-3.52-.95-5.58-.95s-3.92.32-5.58.95c-1.66.63-3.08,1.65-4.26,3.06-1.18,1.41-2.08,3.23-2.71,5.44-.63,2.22-.94,4.92-.94,8.09v9.75c0,3.18.31,5.87.94,8.09.63,2.22,1.52,4.03,2.68,5.44,1.16,1.41,2.58,2.43,4.26,3.06,1.68.63,3.56.95,5.62.95s3.92-.31,5.58-.95c1.66-.63,3.07-1.65,4.22-3.06,1.16-1.41,2.05-3.23,2.68-5.44.63-2.22.94-4.92.94-8.09v-9.75Z"/>
          <path class="cls-4" d="m708.01,1072.52c0,.6-.21,1.12-.64,1.55-.42.43-.94.64-1.53.64h-4.64c-1.21,0-2.02-.4-2.42-1.21l-23.37-44.39c-.1-.15-.18-.23-.23-.23s-.08.08-.08.23v44.16c0,.4-.13.74-.38,1.02-.25.28-.58.42-.98.42h-3.93c-.4,0-.73-.05-.98-.15-.25-.1-.38-.35-.38-.76v-53.16c0-.6.21-1.11.64-1.51.43-.4.95-.61,1.55-.61h4.16c1.06,0,1.76.11,2.12.34.35.23.68.62.98,1.17l23.21,44.16.15.23s.08-.08.08-.23v-44.24c0-.4.12-.74.37-1.02.25-.28.57-.42.97-.42h3.96c.4,0,.72.14.97.42.25.28.38.62.38,1.02v52.55Z"/>
        </g>
      </g>
    </g>
  </g>
</svg>